<?xml version="1.0" encoding="iso-8859-1"?>
<!-- Generator: Adobe Illustrator 19.0.0, SVG Export Plug-In . SVG Version: 6.00 Build 0)  -->
<svg version="1.1" id="Layer_1" xmlns="http://www.w3.org/2000/svg" xmlns:xlink="http://www.w3.org/1999/xlink" x="0px" y="0px"
	 viewBox="0 0 323.414 323.414" style="enable-background:new 0 0 323.414 323.414;" xml:space="preserve">
<g>
	<path style="fill:#13829B;" d="M315.914,58.743v205.929c0,11.046-8.954,20-20,20H27.5c-11.046,0-20-8.954-20-20V58.743
		c0-11.046,8.954-20,20-20h268.413C306.959,38.743,315.914,47.697,315.914,58.743z"/>
	<rect x="58.792" y="71.223" style="fill:#FFDB77;" width="205.982" height="180.969"/>
	<g>
		<rect x="88.707" y="155.839" style="fill:#28D2E4;" width="29" height="46.367"/>
		<rect x="147.283" y="124.514" style="fill:#28D2E4;" width="29" height="77.693"/>
		<rect x="205.86" y="114.468" style="fill:#28D2E4;" width="29" height="87.739"/>
		<g>
			<path style="fill:#22313F;" d="M295.914,31.243H27.5C12.337,31.243,0,43.58,0,58.743v205.929c0,15.164,12.337,27.5,27.5,27.5
				h268.414c15.163,0,27.5-12.336,27.5-27.5V58.743C323.414,43.578,311.077,31.243,295.914,31.243z M308.414,264.671
				c0,6.893-5.607,12.5-12.5,12.5H27.5c-6.893,0-12.5-5.607-12.5-12.5V58.743c0-6.892,5.607-12.5,12.5-12.5h268.414
				c6.893,0,12.5,5.608,12.5,12.5V264.671z"/>
			<path style="fill:#22313F;" d="M264.774,63.723H58.792c-4.143,0-7.5,3.358-7.5,7.5v180.969c0,4.142,3.357,7.5,7.5,7.5h205.982
				c4.143,0,7.5-3.358,7.5-7.5V71.223C272.274,67.08,268.917,63.723,264.774,63.723z M257.274,244.69H66.292V78.723h190.982V244.69z
				"/>
			<circle style="fill:#22313F;" cx="290.831" cy="161.706" r="11.856"/>
			<path style="fill:#22313F;" d="M32.968,129.537c-4.143,0-7.5,3.358-7.5,7.5v49.337c0,4.142,3.358,7.5,7.5,7.5
				c4.143,0,7.5-3.358,7.5-7.5v-49.337C40.468,132.895,37.11,129.537,32.968,129.537z"/>
			<path style="fill:#22313F;" d="M32.968,96.968c-4.143,0-7.5,3.358-7.5,7.5v7.227c0,4.142,3.358,7.5,7.5,7.5
				c4.143,0,7.5-3.358,7.5-7.5v-7.227C40.468,100.326,37.11,96.968,32.968,96.968z"/>
			<path style="fill:#22313F;" d="M88.707,209.706c13.806,0,131.849,0,146.153,0c4.143,0,7.5-3.358,7.5-7.5v-87.739
				c0-4.142-3.357-7.5-7.5-7.5h-29c-4.143,0-7.5,3.358-7.5,7.5v80.239h-14.577v-70.193c0-4.142-3.357-7.5-7.5-7.5h-29
				c-4.143,0-7.5,3.358-7.5,7.5v70.193h-14.576v-38.867c0-4.142-3.357-7.5-7.5-7.5h-29c-4.143,0-7.5,3.358-7.5,7.5v46.367
				C81.207,206.348,84.564,209.706,88.707,209.706z M213.36,121.968h14v72.739h-14V121.968z M154.783,132.014h14v62.693h-14V132.014
				z M96.207,163.339h14v31.367h-14V163.339z"/>
		</g>
	</g>
</g>
<g>
</g>
<g>
</g>
<g>
</g>
<g>
</g>
<g>
</g>
<g>
</g>
<g>
</g>
<g>
</g>
<g>
</g>
<g>
</g>
<g>
</g>
<g>
</g>
<g>
</g>
<g>
</g>
<g>
</g>
</svg>
