<?xml version="1.0" encoding="iso-8859-1"?>
<!-- Generator: Adobe Illustrator 19.0.0, SVG Export Plug-In . SVG Version: 6.00 Build 0)  -->
<svg version="1.1" id="Layer_1" xmlns="http://www.w3.org/2000/svg" xmlns:xlink="http://www.w3.org/1999/xlink" x="0px" y="0px"
	 viewBox="0 0 512 512" style="enable-background:new 0 0 512 512;" xml:space="preserve">
<path style="fill:#ECD5BB;" d="M450.021,482.358H83.537c-23.812,0-43.116-19.304-43.116-43.116V72.758
	c0-23.812,19.304-43.116,43.116-43.116h366.484c23.812,0,43.116,19.304,43.116,43.116v366.484
	C493.137,463.054,473.833,482.358,450.021,482.358z"/>
<path style="fill:#FFF1B6;" d="M191.326,99.705c0,50.601-41.02,91.621-91.621,91.621S8.084,150.306,8.084,99.705
	S49.105,8.084,99.705,8.084S191.326,49.105,191.326,99.705z"/>
<path style="fill:#FF8950;" d="M148.211,99.705c0,26.789-21.716,48.505-48.505,48.505S51.2,126.494,51.2,99.705
	S72.916,51.2,99.705,51.2S148.211,72.916,148.211,99.705z"/>
<path style="fill:#DE9892;" d="M277.558,430.423L277.558,430.423c0,40.589-32.904,73.493-73.493,73.493H81.577
	c-40.589,0-73.493-32.904-73.493-73.493l0,0c0-21.896,9.587-41.544,24.78-55.008c-0.172-2.058-0.282-4.133-0.282-6.236l0,0
	c0-40.589,32.904-73.493,73.493-73.493h73.493c40.589,0,73.493,32.904,73.493,73.493l0,0c0,2.102-0.109,4.178-0.282,6.236
	C267.971,388.879,277.558,408.526,277.558,430.423z"/>
<path style="fill:#EDACA9;" d="M96.275,503.916H81.577c-40.589,0-73.493-32.904-73.493-73.493l0,0
	c0-21.896,9.587-41.544,24.78-55.008c-0.172-2.058-0.282-4.133-0.282-6.236l0,0c0-34.681,24.031-63.733,56.345-71.46
	c32.314,7.727,56.345,36.779,56.345,71.46l0,0c0,2.102-0.109,4.178-0.282,6.236c15.193,13.464,24.78,33.112,24.78,55.008l0,0
	C169.768,471.012,136.865,503.916,96.275,503.916z"/>
<path style="fill:#606D11;" d="M478.95,133.756l-18.15,54.448H137.432l-18.15-54.448c-1.404-4.213,2.604-8.221,6.818-6.818l0,0
	c36.063,12.021,73.827,18.15,111.841,18.15h122.351c38.013,0,75.778-6.129,111.841-18.15l0,0
	C476.345,125.534,480.354,129.542,478.95,133.756z"/>
<path style="fill:#A03D07;" d="M169.768,202.105h43.116v280.253h-43.116V202.105z M385.347,202.105v280.253h43.116V202.105H385.347z
	"/>
<path style="fill:#FF7039;" d="M117.459,177.695c-0.755-3.772,2.571-7.096,6.342-6.342l0,0c30.57,6.114,61.67,9.193,92.844,9.193
	h164.939c31.176,0,62.274-3.08,92.844-9.193l0,0c3.772-0.755,7.096,2.571,6.342,6.342l-8.327,41.635
	c-0.504,2.519-2.716,4.333-5.285,4.333h-336.09c-2.57,0-4.782-1.813-5.285-4.333L117.459,177.695z M487.747,460.8H110.484
	c-2.976,0-5.389,2.413-5.389,5.389v37.726h388.042v-37.726C493.137,463.213,490.723,460.8,487.747,460.8z M140.733,318.59h316.765
	c25.636,0,46.417-20.782,46.417-46.417c0-3.679-3.604-6.277-7.094-5.114l-24.413,8.138c-0.55,0.183-1.125,0.277-1.704,0.277H127.528
	c-0.579,0-1.154-0.094-1.704-0.277l-24.413-8.138c-3.49-1.163-7.094,1.435-7.094,5.114
	C94.316,297.808,115.098,318.59,140.733,318.59z"/>
<path d="M485.514,75.448c-1.486-4.21,0.722-8.827,4.932-10.313l10.165-3.587c4.21-1.483,8.828,0.722,10.313,4.932
	c1.486,4.21-0.722,8.827-4.932,10.313l-10.165,3.587c-0.889,0.314-1.798,0.463-2.69,0.463
	C489.805,80.844,486.686,78.769,485.514,75.448z M48.202,225.026l-10.165,3.587c-4.21,1.486-6.419,6.103-4.932,10.313
	c1.172,3.321,4.291,5.396,7.623,5.396c0.892,0,1.801-0.15,2.69-0.463l10.165-3.587c4.21-1.486,6.419-6.103,4.932-10.313
	C57.03,225.747,52.412,223.541,48.202,225.026z M82.119,197.863c3.857,0.688,7.803,1.15,11.73,1.378
	c0.158,0.01,0.317,0.014,0.474,0.014c4.25,0,7.815-3.319,8.063-7.616c0.258-4.458-3.146-8.28-7.603-8.538
	c-3.291-0.191-6.598-0.579-9.829-1.154c-39.856-7.097-68.785-41.684-68.785-82.24c0-46.062,37.475-83.537,83.537-83.537
	s83.537,37.475,83.537,83.537c0,4.956-0.435,9.919-1.297,14.751c-0.784,4.396,2.146,8.594,6.541,9.377
	c4.408,0.786,8.594-2.145,9.377-6.541c1.027-5.766,1.548-11.682,1.548-17.587C199.411,44.727,154.683,0,99.705,0S0,44.727,0,99.705
	C0,148.109,34.537,189.39,82.119,197.863z M404.215,26.486l10.165,3.587c0.889,0.315,1.798,0.463,2.69,0.463
	c3.332,0,6.451-2.076,7.623-5.396c1.486-4.21-0.722-8.827-4.932-10.313l-10.165-3.587c-4.208-1.491-8.828,0.723-10.313,4.932
	C397.796,20.383,400.005,25,404.215,26.486z M274.867,87.572l10.165,3.587c0.889,0.315,1.798,0.464,2.69,0.464
	c3.332,0,6.451-2.076,7.623-5.396c1.486-4.21-0.722-8.827-4.932-10.313l-10.165-3.587c-4.208-1.491-8.827,0.723-10.313,4.932
	C268.449,81.469,270.657,86.086,274.867,87.572z M147.025,113.128c4.459,0.497,8.433-2.709,8.924-7.145
	c0.23-2.068,0.345-4.18,0.345-6.278c0.001-31.203-25.385-56.589-56.588-56.589S43.116,68.502,43.116,99.705
	c0,28.894,21.629,53.073,50.313,56.245C93.73,155.983,94.03,156,94.328,156c4.066-0.001,7.568-3.061,8.024-7.197
	c0.492-4.438-2.709-8.432-7.146-8.923c-20.478-2.265-35.921-19.537-35.921-40.175c0-22.289,18.132-40.421,40.421-40.421
	s40.421,18.132,40.421,40.421c0,1.506-0.083,3.02-0.247,4.499C139.388,108.642,142.588,112.638,147.025,113.128z M102.404,371.412
	c0.889,0.315,1.798,0.463,2.69,0.463c3.332,0,6.451-2.076,7.623-5.396c1.486-4.21-0.722-8.827-4.932-10.313l-10.165-3.587
	c-4.208-1.491-8.827,0.723-10.313,4.932c-1.486,4.21,0.722,8.827,4.932,10.313L102.404,371.412z M495.827,377.724
	c-4.21-1.49-8.827,0.723-10.313,4.932c-1.486,4.21,0.722,8.827,4.932,10.313l10.165,3.587c0.889,0.315,1.798,0.464,2.69,0.464
	c3.332,0,6.451-2.076,7.623-5.396c1.486-4.21-0.722-8.827-4.932-10.313L495.827,377.724z M512,503.916
	c0,4.466-3.618,8.084-8.084,8.084h-75.453c-4.466,0-8.084-3.618-8.084-8.084s3.618-8.084,8.084-8.084h56.589v-26.947H271.18
	c-0.119,0.001-0.236,0.001-0.357,0H113.179v26.947h282.947c4.466,0,8.084,3.618,8.084,8.084S400.592,512,396.126,512H8.084
	C3.618,512,0,508.382,0,503.916s3.618-8.084,8.084-8.084h24.794C12.935,480.945,0,457.166,0,430.423
	c0-21.972,8.903-43.004,24.557-58.317c-0.039-0.999-0.059-1.971-0.059-2.928c0-30.847,17.087-58.716,44.59-72.729
	c3.975-2.026,8.845-0.445,10.873,3.533c2.028,3.977,0.445,8.846-3.533,10.873c-22.058,11.24-35.76,33.588-35.76,58.324
	c0,1.718,0.083,3.534,0.253,5.555c0.215,2.543-0.785,5.038-2.694,6.73c-14.018,12.423-22.058,30.267-22.058,48.958
	c0,36.066,29.342,65.409,65.409,65.409h15.433v-29.642c0-7.43,6.044-13.474,13.474-13.474h51.2V326.673h-20.952
	c-30.052,0-54.502-24.45-54.502-54.502c0-4.319,2.091-8.405,5.595-10.931c3.504-2.524,8.041-3.219,12.139-1.852l23.996,7.999h33.723
	v-35.641h-30.613c-6.399,0-11.955-4.555-13.212-10.831l-8.328-41.636c-0.885-4.428,0.493-8.978,3.685-12.169
	c2.042-2.042,4.638-3.341,7.402-3.781l-9.006-27.017c-1.624-4.874-0.377-10.158,3.256-13.79s8.916-4.874,13.79-3.254
	c35.302,11.767,72.07,17.734,109.282,17.734h122.352c37.211,0,73.98-5.966,109.283-17.734c4.875-1.627,10.156-0.379,13.788,3.254
	c3.633,3.631,4.88,8.915,3.256,13.788l-9.006,27.019c2.764,0.44,5.361,1.739,7.402,3.781c3.193,3.192,4.57,7.741,3.685,12.168
	l-8.328,41.636c-1.256,6.275-6.812,10.832-13.214,10.832h-30.613v35.642h33.722l23.996-7.999c4.101-1.365,8.637-0.673,12.139,1.852
	c3.504,2.526,5.595,6.612,5.595,10.931c0,30.052-24.45,54.502-54.502,54.502h-20.951v126.041h51.2
	c7.43,0,13.474,6.044,13.474,13.474v29.642h2.695C508.382,495.832,512,499.45,512,503.916z M464.952,215.579l7.104-35.523
	c-28.774,5.502-58.18,8.383-87.467,8.566c-0.017,0-0.035,0-0.052,0c-4.441,0-8.056-3.586-8.083-8.034
	c-0.027-4.465,3.57-8.107,8.034-8.135c25.158-0.157,50.41-2.375,75.241-6.6l9.863-29.587c-35.394,11.22-72.136,16.906-109.3,16.906
	H237.941c-37.165,0-73.908-5.686-109.3-16.907l9.863,29.588c25.785,4.388,52.011,6.61,78.142,6.61h137.173
	c4.466,0,8.084,3.618,8.084,8.084s-3.618,8.084-8.084,8.084H216.645c-30.295,0-60.709-2.884-90.471-8.576l7.105,35.523H464.952z
	 M393.432,231.747v35.642h26.947v-35.642H393.432z M220.968,231.747v35.642h156.295v-35.642H220.968z M177.853,231.747v35.642H204.8
	v-35.642H177.853z M457.499,310.505c19.855,0,36.231-15.171,38.146-34.531l-20.679,6.894c-1.374,0.458-2.808,0.691-4.261,0.691
	h-41.323c-0.603,0.068-1.234,0.068-1.836,0h-41.28c-0.603,0.068-1.234,0.068-1.836,0H127.528c-1.453,0-2.887-0.233-4.261-0.691
	l-20.679-6.894c1.913,19.36,18.291,34.531,38.146,34.531H457.499z M204.8,326.673h-26.947v126.043H204.8V326.673z M269.474,430.423
	c0-18.692-8.04-36.536-22.058-48.958c-1.909-1.692-2.908-4.188-2.694-6.73c0.17-2.021,0.253-3.838,0.253-5.555
	c0-15.627-5.563-30.667-15.691-42.506h-8.316v126.042h44.613C268.166,445.598,269.474,438.122,269.474,430.423z M377.263,326.673
	H249.204c7.767,12.715,11.94,27.389,11.94,42.506c0,0.956-0.02,1.928-0.059,2.928c15.654,15.314,24.558,36.346,24.558,58.316
	c0,7.63-1.033,15.091-3.077,22.293h94.698V326.673z M420.379,326.673h-26.947v126.043h26.947V326.673z M69.453,417.253
	l-10.165,3.587c-4.21,1.486-6.419,6.103-4.932,10.313c1.172,3.321,4.291,5.396,7.623,5.396c0.892,0,1.801-0.15,2.69-0.464
	l10.165-3.587c4.21-1.486,6.419-6.103,4.932-10.313C78.281,417.975,73.662,415.771,69.453,417.253z M322.455,372.81
	c1.567,2.28,4.096,3.505,6.669,3.505c1.579,0,3.173-0.462,4.572-1.424c3.679-2.53,4.611-7.563,2.081-11.241l-6.107-8.882
	c-2.53-3.679-7.564-4.611-11.241-2.081c-3.679,2.53-4.611,7.563-2.081,11.241L322.455,372.81z"/>
<g>
</g>
<g>
</g>
<g>
</g>
<g>
</g>
<g>
</g>
<g>
</g>
<g>
</g>
<g>
</g>
<g>
</g>
<g>
</g>
<g>
</g>
<g>
</g>
<g>
</g>
<g>
</g>
<g>
</g>
</svg>
